<mxfile host="65bd71144e">
    <diagram id="tzXea7u39_7wpcGwWUCg" name="Page-1">
        <mxGraphModel dx="865" dy="459" grid="1" gridSize="10" guides="1" tooltips="1" connect="1" arrows="1" fold="1" page="1" pageScale="1" pageWidth="850" pageHeight="1100" math="0" shadow="0">
            <root>
                <mxCell id="0"/>
                <mxCell id="1" parent="0"/>
                <mxCell id="12" value="" style="group" vertex="1" connectable="0" parent="1">
                    <mxGeometry x="40" y="40" width="760" height="50" as="geometry"/>
                </mxCell>
                <mxCell id="2" value="1.&lt;br&gt;User Stories" style="html=1;dashed=0;whitespace=wrap;fillColor=#647687;fontColor=#FCFCFC;strokeColor=#314354;" vertex="1" parent="12">
                    <mxGeometry width="108.57142857142858" height="50" as="geometry"/>
                </mxCell>
                <mxCell id="3" value="2.&lt;br&gt;Features" style="html=1;dashed=0;whitespace=wrap;fillColor=#647687;fontColor=#FCFCFC;strokeColor=#314354;" vertex="1" parent="12">
                    <mxGeometry x="162.85714285714286" width="108.57142857142858" height="50" as="geometry"/>
                </mxCell>
                <mxCell id="4" value="" style="edgeStyle=none;html=1;fontColor=#FCFCFC;" edge="1" parent="12" source="2" target="3">
                    <mxGeometry relative="1" as="geometry"/>
                </mxCell>
                <mxCell id="5" value="3.&lt;br&gt;Flowchart" style="html=1;dashed=0;whitespace=wrap;fillColor=#647687;fontColor=#FCFCFC;strokeColor=#314354;" vertex="1" parent="12">
                    <mxGeometry x="325.7142857142857" width="108.57142857142858" height="50" as="geometry"/>
                </mxCell>
                <mxCell id="6" value="" style="edgeStyle=none;html=1;fontColor=#FCFCFC;" edge="1" parent="12" source="3" target="5">
                    <mxGeometry relative="1" as="geometry"/>
                </mxCell>
                <mxCell id="7" value="4.&lt;br&gt;Architecture" style="html=1;dashed=0;whitespace=wrap;fillColor=#647687;fontColor=#FCFCFC;strokeColor=#314354;" vertex="1" parent="12">
                    <mxGeometry x="488.5714285714286" width="108.57142857142858" height="50" as="geometry"/>
                </mxCell>
                <mxCell id="8" value="" style="edgeStyle=none;html=1;fontColor=#FCFCFC;" edge="1" parent="12" source="5" target="7">
                    <mxGeometry relative="1" as="geometry"/>
                </mxCell>
                <mxCell id="9" value="Development&lt;br&gt;step" style="html=1;dashed=0;whitespace=wrap;fillColor=#e3c800;fontColor=#000000;strokeColor=#B09500;" vertex="1" parent="12">
                    <mxGeometry x="651.4285714285714" width="108.57142857142858" height="50" as="geometry"/>
                </mxCell>
                <mxCell id="10" value="" style="edgeStyle=none;html=1;fontColor=#FCFCFC;" edge="1" parent="12" source="7" target="9">
                    <mxGeometry relative="1" as="geometry"/>
                </mxCell>
                <mxCell id="18" value="" style="endArrow=none;html=1;fontColor=#FCFCFC;" edge="1" parent="1">
                    <mxGeometry width="50" height="50" relative="1" as="geometry">
                        <mxPoint x="40" y="120" as="sourcePoint"/>
                        <mxPoint x="640" y="120" as="targetPoint"/>
                        <Array as="points">
                            <mxPoint x="40" y="140"/>
                            <mxPoint x="190" y="140"/>
                            <mxPoint x="340" y="140"/>
                            <mxPoint x="490" y="140"/>
                            <mxPoint x="580" y="140"/>
                            <mxPoint x="640" y="140"/>
                        </Array>
                    </mxGeometry>
                </mxCell>
                <mxCell id="21" value="&lt;font color=&quot;#000000&quot;&gt;Planning Step&lt;/font&gt;" style="text;html=1;strokeColor=none;fillColor=none;align=center;verticalAlign=middle;whiteSpace=wrap;rounded=0;labelBackgroundColor=#FCFCFC;fontColor=#FCFCFC;" vertex="1" parent="1">
                    <mxGeometry x="280" y="110" width="130" height="30" as="geometry"/>
                </mxCell>
            </root>
        </mxGraphModel>
    </diagram>
</mxfile>